<svg width="64" height="64" viewBox="0 0 64 64" fill="none" xmlns="http://www.w3.org/2000/svg">
<path d="M64 0H0V63.2191H64V0Z" fill="#002F87"/>
<path d="M58.9556 38.4188C57.7531 38.7467 56.1601 39.2465 54.4266 39.2465C52.2402 39.2465 50.0069 38.7467 48.4295 37.5754C46.8209 36.3729 45.5872 34.53 45.5872 31.797C45.5872 29.1108 46.7428 27.2211 48.289 25.9561C49.8663 24.6442 52.1465 23.9883 54.4734 23.9883C56.7536 23.9883 58.3934 24.5193 59.0649 24.5661C59.0649 24.9566 59.1274 26.7213 59.3461 28.002C59.2524 28.2675 58.6589 28.3612 58.4871 28.1581C57.878 26.1123 56.4569 25.019 54.286 25.019C51.8029 25.019 49.1479 27.1118 49.1479 31.5003C49.1479 35.8887 51.7092 38.247 54.3797 38.247C57.0815 38.247 58.3309 36.326 58.94 34.8268C59.1118 34.655 59.6584 34.7174 59.7833 34.9829C59.6428 36.5915 59.2524 37.919 58.9556 38.4188Z" fill="white"/>
<path d="M25.7686 38.8873H22.8638C21.8018 38.8873 20.7086 38.9029 19.0375 38.9498C18.8501 38.8248 18.8501 38.2939 19.0375 38.1845L20.0839 38.0284C21.0834 37.8878 21.224 37.7472 21.224 35.7014V27.4866C21.224 25.472 21.0834 25.3314 20.0839 25.1596L19.5217 25.0503C19.3186 24.9254 19.3343 24.41 19.5685 24.2695C20.6149 24.3163 21.7081 24.3319 22.7701 24.3319H27.5021C28.9233 24.3319 30.204 24.3163 30.4851 24.2695C30.5007 24.613 30.6569 26.206 30.7818 27.6897C30.6881 27.9239 30.1727 27.9864 29.9541 27.7834C29.7042 27.0181 29.4075 26.3622 29.1107 26.0498C28.6891 25.6282 28.0175 25.3627 26.9243 25.3627H25.1439C24.4099 25.3627 24.4099 25.4095 24.4099 26.2216V30.0791C24.4099 30.7038 24.4255 30.735 25.0346 30.735H26.5651C27.7208 30.735 27.9707 30.5789 28.2205 29.5169L28.3299 28.9703C28.486 28.7985 29.0483 28.7985 29.1576 28.9859C29.1107 29.7043 29.0951 30.4852 29.0951 31.3285C29.0951 32.1718 29.1107 32.9683 29.1576 33.6711C29.0483 33.8585 28.486 33.8898 28.3299 33.6867L28.2205 33.1401C27.9707 32.0781 27.7208 31.9064 26.5651 31.9064H25.0346C24.4255 31.9064 24.4099 31.9376 24.4099 32.5935V35.2016C24.4099 36.2167 24.488 36.9195 24.7691 37.2943C25.0502 37.6848 25.4719 37.8722 27.1117 37.8722C29.0483 37.8722 29.8135 37.7941 31.0317 35.3266C31.2191 35.0767 31.7813 35.1548 31.8594 35.4359C31.7657 36.5759 31.2347 38.3563 30.9224 38.9498C29.7354 38.9029 27.5959 38.8873 25.7686 38.8873Z" fill="white"/>
<path d="M17.429 38.4188C16.2265 38.7467 14.6335 39.2465 12.9 39.2465C10.7136 39.2465 8.48027 38.7467 6.90292 37.5754C5.29433 36.3729 4.07617 34.53 4.07617 31.797C4.07617 29.1108 5.23186 27.2211 6.77798 25.9561C8.37095 24.6442 10.6355 23.9883 12.9625 23.9883C15.2426 23.9883 16.898 24.5193 17.554 24.5662C17.554 24.9566 17.6321 26.7214 17.8195 28.002C17.7258 28.2675 17.1323 28.3612 16.9761 28.1582C16.3827 26.1123 14.9459 25.0191 12.7907 25.0191C10.3075 25.0191 7.66817 27.1118 7.66817 31.5003C7.66817 35.8888 10.2294 38.247 12.9156 38.247C15.6174 38.247 16.8668 36.326 17.4759 34.8268C17.6633 34.655 18.1943 34.7175 18.3192 34.9829C18.1318 36.5915 17.7414 37.919 17.429 38.4188Z" fill="white"/>
<path d="M46.9926 38.1845L46.1493 38.0439C45.3216 37.8878 45.1186 37.4036 44.65 36.0918L41.6203 27.4553C41.0737 25.8936 40.7925 25.0815 40.6208 24.4412C40.5271 24.1132 40.3865 24.0039 40.1054 24.0039H38.528C38.3718 24.4568 37.8252 26.7526 37.2786 28.1269L35.2796 33.4837C34.6861 35.0766 34.2957 36.123 33.8897 36.9976C33.5305 37.8565 33.0619 38.0439 32.5466 38.1064L31.9375 38.1689C31.7969 38.3407 31.7657 38.7936 32.0156 38.9341C33.0463 38.9341 33.5461 38.8717 34.3113 38.8717C35.2484 38.8873 36.1386 38.8873 36.9194 38.9341C37.1381 38.8248 37.0912 38.325 36.9663 38.1689L36.2947 38.0439C35.67 37.9346 35.4983 37.8097 35.4983 37.6691C35.4983 37.4973 35.5139 37.3255 35.6544 36.8726L36.4821 34.3114C36.6227 33.8897 36.6696 33.8741 37.2162 33.8741H39.7149C40.4958 33.8741 40.6676 33.9209 40.7769 34.2645L41.386 36.1542C41.6515 36.9663 41.8077 37.4973 41.8077 37.6535C41.8077 37.7941 41.7296 37.9502 41.1986 38.0283L40.4802 38.1533C40.2303 38.325 40.2772 38.7779 40.5271 38.9185C41.5422 38.8717 42.4168 38.856 43.5256 38.856C44.6813 38.856 45.8994 38.8717 46.9614 38.9185C47.1644 38.8092 47.1176 38.2938 46.9926 38.1845ZM39.5744 32.734H37.6378C37.0756 32.734 36.9507 32.6716 37.1693 32.0781L37.7315 30.4227C38.0595 29.4231 38.4187 28.4861 38.6373 28.002C38.8404 28.4705 39.1215 29.3763 39.4495 30.3289L40.0273 32.1093C40.2303 32.6716 40.0898 32.734 39.5744 32.734Z" fill="white"/>
</svg>
